<svg width="102" height="16" viewBox="0 0 102 16" fill="none" xmlns="http://www.w3.org/2000/svg">
<path d="M3.43187 0.0231934H14.4556V3.1019H0.889648L0.894136 2.49275C0.903111 1.12713 2.03847 0.0231934 3.43187 0.0231934Z" fill="#FF385C"/>
<path d="M0.912086 6.26855H14.4556V9.34726H0.889648" fill="#FF385C"/>
<path d="M0.911767 12.5139H14.4553V15.5926H3.44501C2.03591 15.5926 0.898304 14.4689 0.907279 13.0879L0.911767 12.5139Z" fill="#FF385C"/>
<path d="M98.3872 0.0231934V11.6783H98.3424L90.9603 0.0231934H87.8369L97.6244 15.5926H101.214V0.0231934H98.3872Z" fill="#292D36"/>
<path d="M87.8867 3.03369V15.5926H90.7139V7.54399L87.8867 3.03369Z" fill="#292D36"/>
<path d="M73.8267 0.0231934H71.3809L64.4678 15.5926H67.6315L72.5253 3.3218L77.4392 15.5926H80.6702L73.8267 0.0231934Z" fill="#292D36"/>
<path d="M35.3682 0.0231934L30.8357 5.80676H30.7684L26.191 0.0231934H22.666V15.5926H25.3608V3.51972L29.7138 9.21532H31.6883L38.9223 0.0231934H35.3682Z" fill="#292D36"/>
<path d="M36.1084 15.5927H38.9131V2.5918L36.1084 6.20268V15.5927Z" fill="#292D36"/>
<path d="M55.3149 8.68754C57.5362 8.20375 58.9498 6.73037 58.9498 4.48731C58.9498 1.1887 56.0778 0.0231934 53.0935 0.0231934H47.125V0.55317C47.125 1.54715 47.9485 2.35421 48.9627 2.35421H52.9589C54.4173 2.35421 56.1226 2.77204 56.1226 4.46532C56.1226 6.35653 54.3052 6.73037 52.7121 6.73037H47.125V15.5926H49.9455C49.9499 15.5926 49.9522 15.5904 49.9522 15.586V8.99541H52.4652L56.1428 15.5882C56.1428 15.5926 56.1451 15.5926 56.1496 15.5926H59.5556L55.3149 8.68754Z" fill="#292D36"/>
</svg>
